<svg width="48" height="48" viewBox="0 0 48 48" fill="none" xmlns="http://www.w3.org/2000/svg">
<circle cx="24" cy="24" r="24" fill="#CCCCCC"/>
<path d="M24.0654 18.816C23.6014 19.664 22.2894 20.336 21.0894 20.4V22.656C21.9534 22.576 22.8814 22.304 23.6494 21.92V30H26.1294V18.816H24.0654Z" fill="black"/>
<path fill-rule="evenodd" clip-rule="evenodd" d="M23.0711 10.3344C23.2028 10.2309 23.5224 10 23.9894 10C24.6746 10 25.079 10.4837 25.1738 10.597C25.176 10.5997 25.1781 10.6022 25.1799 10.6044C25.1835 10.6079 25.1937 10.6175 25.2134 10.6345C25.2425 10.6598 25.2601 10.6743 25.284 10.6939C25.3055 10.7116 25.332 10.7334 25.3768 10.7712L25.3795 10.7734C25.4983 10.8737 25.771 11.1037 25.9591 11.45C26.0925 11.6955 26.2314 11.9398 26.3779 12.1972L26.4117 12.2567C26.5682 12.5319 26.7323 12.8214 26.8911 13.1184C26.9752 13.2756 27.0646 13.4322 27.1647 13.6072L27.1855 13.6436C27.2905 13.8274 27.4065 14.0313 27.5173 14.2432C27.6317 14.4621 27.7584 14.7638 27.8444 14.9687C27.877 15.0463 27.9037 15.11 27.9217 15.1501C28.0459 15.4259 28.1303 15.708 28.1886 15.9029C28.1926 15.9161 28.1964 15.929 28.2001 15.9414C28.2677 16.1665 28.3081 16.2898 28.3556 16.3897C28.5018 16.6974 28.5779 17.023 28.6194 17.2007C28.6238 17.2197 28.6279 17.2371 28.6316 17.2525C28.6824 17.4647 28.7026 17.5059 28.7097 17.5181C28.7521 17.5918 28.7931 17.6633 28.8332 17.7332C28.9725 17.9761 29.1004 18.1992 29.239 18.426C29.2844 18.5003 29.3215 18.5691 29.3486 18.6206C29.36 18.6422 29.3713 18.664 29.3805 18.6817L29.385 18.6905C29.3914 18.7028 29.3968 18.7132 29.4017 18.7226C29.4051 18.7289 29.4082 18.7348 29.4112 18.7404C29.4201 18.7571 29.4262 18.7679 29.4299 18.7741C29.4742 18.8277 29.5095 18.8781 29.5367 18.9204C29.558 18.9535 29.5762 18.9844 29.5912 19.0112C29.6201 19.0337 29.6375 19.0457 29.6479 19.0523L29.651 19.0542C29.8672 19.0947 30.1497 19.1114 30.4391 19.1114C30.4899 19.1114 30.548 19.1106 30.6119 19.1098C30.8916 19.1062 31.2814 19.1012 31.6478 19.1517C31.8206 19.1755 31.9834 19.188 32.1415 19.188C32.8117 19.188 33.4791 19.2011 34.1498 19.2294C34.7685 19.2554 35.5692 19.3193 36.3441 19.7092C36.6427 19.8594 36.8612 20.0379 37.028 20.1903C37.1367 20.2896 37.1877 20.34 37.2284 20.3804C37.2717 20.4233 37.3035 20.4547 37.3806 20.5211C37.7455 20.8352 37.8987 21.2466 37.9588 21.5514C38.0195 21.8597 38.0095 22.1701 37.9527 22.4389C37.7929 23.1954 37.3386 23.6553 37.0821 23.915C37.0695 23.9278 37.0573 23.9401 37.0457 23.9519C36.8046 24.1975 36.5434 24.3787 36.3715 24.4979C36.1717 24.6365 36.0735 24.7049 35.9925 24.7804C35.6118 25.1352 35.1716 25.4484 34.8158 25.7015C34.7413 25.7545 34.6706 25.8049 34.6048 25.8524C34.3132 26.0633 34.0103 26.2509 33.74 26.4165C33.7111 26.4343 33.6825 26.4518 33.6542 26.4691C33.408 26.6198 33.1898 26.7534 32.9805 26.896C32.5171 27.2118 32.2166 27.4956 32.0313 27.8295C32.0106 27.8667 31.9912 27.9013 31.9728 27.9341C31.9027 28.0594 31.8478 28.1574 31.7989 28.2634C31.7759 28.3131 31.7621 28.3487 31.7542 28.3718C31.7549 28.443 31.7628 28.5188 31.7773 28.6573C31.782 28.7021 31.7873 28.7535 31.7934 28.8133C31.8101 28.9792 31.8444 29.1518 31.8955 29.3865C31.9006 29.4095 31.9058 29.4334 31.9112 29.4581C31.9566 29.6647 32.0142 29.9268 32.0522 30.1991C32.0899 30.4684 32.0906 30.7342 32.091 30.9008C32.091 30.9198 32.0911 30.9375 32.0912 30.9537C32.0923 31.1478 32.0983 31.2281 32.1099 31.2856C32.1593 31.5306 32.1641 31.756 32.1631 31.911C32.1626 31.9898 32.1603 32.067 32.1586 32.1235C32.1568 32.186 32.1558 32.2284 32.1558 32.266C32.1558 32.922 32.1934 33.5961 32.2731 34.2332C32.2819 34.3042 32.3085 34.3753 32.4299 34.6876C32.5265 34.9361 32.7017 35.3868 32.7017 35.9285C32.7017 36.4015 32.5095 36.7799 32.3546 37.0086C32.1919 37.2488 31.9656 37.4796 31.695 37.6377C31.558 37.7178 31.4321 37.7708 31.3574 37.8018C31.3384 37.8097 31.3226 37.8162 31.3094 37.8217C31.2594 37.8424 31.2445 37.8485 31.2255 37.858C31.036 37.9521 30.832 38.0004 30.6245 38C30.4257 37.9997 30.2622 37.9548 30.1497 37.9137C30.0439 37.8752 29.9569 37.8297 29.9209 37.8109C29.9012 37.8006 29.896 37.7978 29.8925 37.7959C29.8894 37.7942 29.8871 37.793 29.8761 37.7873C29.8674 37.7827 29.8672 37.7828 29.8714 37.7847C29.4197 37.5736 29.0008 37.33 28.6254 37.1117C28.5923 37.0925 28.5595 37.0734 28.5271 37.0546C28.3849 36.9721 28.234 36.8965 28.0433 36.8011L28.0405 36.7997C27.8615 36.7101 27.6447 36.6016 27.4288 36.4744C26.8599 36.1393 26.4229 35.7178 26.0646 35.3671L26.0616 35.3648C26.0466 35.3537 26.0369 35.347 26.0191 35.3347C26.0059 35.3256 25.9882 35.3134 25.9605 35.2939C25.8633 35.2257 25.6596 35.0817 25.4755 34.848C25.4154 34.7717 25.3079 34.667 25.1657 34.5527C25.0448 34.4554 24.9392 34.3544 24.86 34.2769C24.8229 34.2405 24.7938 34.2116 24.7682 34.1862C24.7286 34.1469 24.6974 34.1159 24.658 34.0786C24.5924 34.0166 24.558 33.9911 24.5476 33.9835C24.4522 33.9469 24.3661 33.9082 24.305 33.8805C24.2939 33.8755 24.2836 33.8709 24.274 33.8665C24.2183 33.8413 24.1854 33.8263 24.1515 33.8125C24.1435 33.8092 24.1367 33.8065 24.131 33.8043C23.9309 33.8085 23.7802 33.8384 23.6992 33.8717C23.7022 33.8705 23.692 33.8744 23.6598 33.8931C23.6307 33.91 23.6043 33.9266 23.5611 33.9537C23.5482 33.9618 23.5338 33.9708 23.5174 33.9811L23.5132 33.9837C23.3969 34.0564 23.1742 34.1957 22.8985 34.285C22.895 34.2864 22.8683 34.2971 22.8106 34.3313C22.7494 34.3677 22.6892 34.4083 22.5994 34.4687C22.5889 34.4758 22.578 34.4832 22.5666 34.4909C22.2967 34.6726 21.993 34.841 21.7474 34.9772C21.6632 35.0238 21.5859 35.0667 21.519 35.105C21.0051 35.3999 20.4728 35.7041 19.9269 35.9912C19.5778 36.1748 19.2162 36.3337 18.8988 36.4731C18.8384 36.4996 18.7797 36.5255 18.7229 36.5506C18.3482 36.7166 18.0317 36.8652 17.7434 37.0421C16.998 37.4995 16.1778 37.5556 15.5986 37.5556C15.1638 37.5556 14.7726 37.3984 14.497 37.2483C14.2094 37.0918 13.9276 36.8774 13.7064 36.631C13.3808 36.2684 13.3409 35.8255 13.3303 35.7076C13.3131 35.5174 13.3221 35.334 13.3326 35.2033C13.3504 34.9814 13.391 34.7301 13.4028 34.657C13.4044 34.6469 13.4059 34.6374 13.4059 34.6374C13.4899 34.052 13.6766 33.5483 13.8424 33.1407C13.8943 33.0132 13.942 32.8992 13.9864 32.7934C14.0974 32.5287 14.1867 32.3156 14.2639 32.0717C14.2756 32.0348 14.2875 31.9971 14.2997 31.9585C14.3894 31.674 14.4924 31.3473 14.6188 31.0223C14.6681 30.8954 14.7053 30.7442 14.7651 30.4835C14.7673 30.4742 14.7695 30.4646 14.7717 30.4549C14.8237 30.2281 14.8977 29.9054 15.0205 29.5884C15.0582 29.491 15.0903 29.4113 15.119 29.3401C15.1693 29.2153 15.209 29.1168 15.2494 28.9961C15.306 28.8268 15.3135 28.749 15.3135 28.727C15.3135 28.4053 15.3132 28.1655 15.291 27.9316C15.2855 27.8739 15.2833 27.8192 15.2822 27.7889C15.2813 27.7645 15.2805 27.7363 15.2798 27.7126C15.258 27.6786 15.2414 27.6503 15.2307 27.6319C15.2275 27.6264 15.2241 27.6205 15.2208 27.6147C15.1421 27.5228 15.0765 27.4356 15.0293 27.3723C15.0147 27.3528 15.0018 27.3354 14.9903 27.3198C14.9455 27.2595 14.9202 27.2255 14.8918 27.1911C14.8187 27.1024 14.7508 27.019 14.6867 26.9404C14.3494 26.5265 14.1217 26.2472 13.8357 26.0378C13.2257 25.5915 12.7689 24.9891 12.4346 24.5483C12.3825 24.4796 12.3335 24.4149 12.2873 24.3554C12.2873 24.3554 12.277 24.3427 12.2497 24.3139C12.2283 24.2915 12.2105 24.2734 12.1861 24.2487C12.1715 24.2339 12.1545 24.2167 12.133 24.1947L12.1304 24.1921C12.0459 24.1058 11.8728 23.929 11.7339 23.7018C11.6503 23.565 11.5355 23.4167 11.4624 23.3447C11.2363 23.1217 11.0192 22.8447 10.8713 22.656C10.8301 22.6034 10.7942 22.5576 10.765 22.5218C10.6566 22.3888 10.585 22.2563 10.5402 22.1635C10.4939 22.0678 10.4591 21.9776 10.4354 21.9136C10.4203 21.8726 10.401 21.8178 10.389 21.7835C10.3849 21.772 10.3817 21.7628 10.3797 21.7572C10.3706 21.7316 10.3655 21.7184 10.3655 21.7184C10.1974 21.3435 10 20.8315 10 20.1983C10 19.983 10.0459 19.7563 10.1535 19.5419C10.259 19.3317 10.3997 19.1811 10.5294 19.0776C10.7619 18.8919 11.0046 18.8232 11.0926 18.799C11.1358 18.7871 11.1765 18.7774 11.2063 18.7706C11.2311 18.7582 11.2523 18.7487 11.2685 18.7416C11.336 18.7123 11.3952 18.6934 11.4338 18.6821C11.5091 18.66 11.5791 18.6459 11.6123 18.6393C11.6298 18.6358 11.6412 18.6336 11.6493 18.632C11.8303 18.5701 12.0009 18.5411 12.1064 18.5249C12.1683 18.5154 12.2297 18.5074 12.2762 18.5013L12.2883 18.4997C12.3421 18.4926 12.3742 18.4882 12.3993 18.4841C13.0122 18.3829 13.637 18.3835 14.1499 18.384C14.1838 18.384 14.2172 18.384 14.25 18.384C14.3307 18.384 14.4105 18.3841 14.4895 18.3842C15.2342 18.385 15.9088 18.3857 16.5742 18.3139C16.9649 18.2718 17.3484 18.2591 17.6875 18.2484L17.7198 18.2474C18.0584 18.2367 18.3529 18.2275 18.642 18.1998C18.7106 18.1933 18.7766 18.1891 18.8319 18.186C18.8575 18.1845 18.8832 18.1832 18.9065 18.182L18.9127 18.1817C18.9385 18.1803 18.9618 18.1791 18.9846 18.1778C19.0191 18.1758 19.0484 18.1738 19.0736 18.1718C19.0909 18.14 19.1108 18.1022 19.1343 18.0566C19.1423 18.0411 19.1511 18.0239 19.1606 18.0052C19.2295 17.8703 19.3369 17.6598 19.4644 17.4678C19.5599 17.324 19.6448 17.1586 19.7466 16.9382C19.7699 16.8879 19.7959 16.8303 19.8241 16.7679C19.9047 16.5896 20.0029 16.3721 20.1047 16.1734C20.2665 15.8573 20.3902 15.5625 20.5316 15.2254C20.6136 15.03 20.7015 14.8205 20.8063 14.5844C20.8398 14.5087 20.8732 14.4137 20.9201 14.2667C20.9272 14.2444 20.9349 14.2199 20.9432 14.1936C20.9821 14.0701 21.0333 13.9078 21.0901 13.7551C21.1372 13.6285 21.1887 13.5026 21.2309 13.3995C21.2385 13.381 21.2458 13.3632 21.2527 13.3463C21.302 13.2253 21.3389 13.1316 21.3689 13.0434C21.5176 12.6054 21.7851 12.1976 21.9381 11.9643C21.9641 11.9247 21.9868 11.8901 22.005 11.8613C22.1823 11.581 22.1942 11.5029 22.1959 11.4816C22.2301 11.0503 22.4755 10.669 22.8435 10.4755L22.9976 10.3944C23.0143 10.3804 23.0409 10.3581 23.0711 10.3344ZM22.9638 10.4228C22.9638 10.4228 22.9624 10.4239 22.9653 10.4216L22.9638 10.4228ZM11.2814 18.7534C11.2786 18.7541 11.2755 18.7549 11.269 18.7564C11.2926 18.7489 11.2993 18.7488 11.2814 18.7534Z" fill="#999999"/>
</svg>
